<svg width="40" height="40" viewBox="0 0 40 40" fill="none" xmlns="http://www.w3.org/2000/svg">
<rect x="5" y="7" width="30" height="22" fill="#F2F8FD"/>
<path d="M35.3143 0H4.68571C2.10286 0 0 1.83731 0 4.11397V31.1144C0 33.3911 2.10286 35.2284 4.68571 35.2284H30.6057L29.3943 31.5338L32.32 33.9103L35.0857 36.147L40 39.9415V4.11397C40 1.83731 37.8971 0 35.3143 0ZM26.4914 26.0818C26.4914 26.0818 25.6686 25.2231 24.9829 24.4642C27.9771 23.7252 29.12 22.0876 29.12 22.0876C28.1829 22.6269 27.2914 23.0063 26.4914 23.2659C25.3486 23.6853 24.2514 23.9649 23.1771 24.1247C20.9829 24.4841 18.9714 24.3843 17.2571 24.1047C15.9543 23.885 14.8343 23.5655 13.8971 23.2459C13.3714 23.0662 12.8 22.8465 12.2286 22.5669C12.16 22.527 12.0914 22.507 12.0229 22.4671C11.9771 22.4471 11.9543 22.4271 11.9314 22.4072C11.52 22.2075 11.2914 22.0677 11.2914 22.0677C11.2914 22.0677 12.3886 23.6653 15.2914 24.4242C14.6057 25.1831 13.76 26.0818 13.76 26.0818C8.70857 25.942 6.78857 23.0462 6.78857 23.0462C6.78857 16.6157 10.08 11.4033 10.08 11.4033C13.3714 9.24646 16.5029 9.30637 16.5029 9.30637L16.7314 9.54602C12.6171 10.5845 10.72 12.1622 10.72 12.1622C10.72 12.1622 11.2229 11.9225 12.0686 11.583C14.5143 10.6444 16.4571 10.3848 17.2571 10.3249C17.3943 10.3049 17.5086 10.2849 17.6457 10.2849C19.04 10.1252 20.6171 10.0852 22.2629 10.245C24.4343 10.4647 26.7657 11.0239 29.1429 12.1622C29.1429 12.1622 27.3371 10.6644 23.4514 9.6259L23.7714 9.30637C23.7714 9.30637 26.9029 9.24646 30.1943 11.4033C30.1943 11.4033 33.4857 16.6157 33.4857 23.0462C33.4857 23.0462 31.5429 25.942 26.4914 26.0818ZM15.8629 16.7555C14.56 16.7555 13.5314 17.754 13.5314 18.9722C13.5314 20.1904 14.5829 21.189 15.8629 21.189C17.1657 21.189 18.1943 20.1904 18.1943 18.9722C18.2171 17.754 17.1657 16.7555 15.8629 16.7555ZM24.2057 16.7555C22.9029 16.7555 21.8743 17.754 21.8743 18.9722C21.8743 20.1904 22.9257 21.189 24.2057 21.189C25.5086 21.189 26.5371 20.1904 26.5371 18.9722C26.5371 17.754 25.5086 16.7555 24.2057 16.7555Z" fill="#494161"/>
</svg>
