<svg width="36" height="36" viewBox="0 0 36 36" fill="none" xmlns="http://www.w3.org/2000/svg">
<path d="M18 0C8.064 0 0 8.064 0 18C0 27.936 8.064 36 18 36H27V32.4H18C10.188 32.4 3.6 25.812 3.6 18C3.6 10.188 10.188 3.6 18 3.6C25.812 3.6 32.4 10.188 32.4 18V20.574C32.4 21.996 31.122 23.4 29.7 23.4C28.278 23.4 27 21.996 27 20.574V18C27 13.032 22.968 9 18 9C13.032 9 9 13.032 9 18C9 22.968 13.032 27 18 27C20.484 27 22.752 25.992 24.372 24.354C25.542 25.956 27.558 27 29.7 27C33.246 27 36 24.12 36 20.574V18C36 8.064 27.936 0 18 0ZM18 23.4C15.012 23.4 12.6 20.988 12.6 18C12.6 15.012 15.012 12.6 18 12.6C20.988 12.6 23.4 15.012 23.4 18C23.4 20.988 20.988 23.4 18 23.4Z" fill="#F9FCFE"/>
</svg>
