<svg width="50" height="50" viewBox="0 0 50 50" fill="none" xmlns="http://www.w3.org/2000/svg">
<path d="M41.1193 10.9174C38.2063 9.55448 35.0917 8.56399 31.8354 8C31.4355 8.72302 30.9683 9.6955 30.6462 10.4691C27.1847 9.94853 23.755 9.94853 20.3572 10.4691C20.0351 9.6955 19.5573 8.72302 19.1538 8C15.894 8.56399 12.7758 9.55812 9.86286 10.9246C3.98746 19.8031 2.39473 28.4611 3.19109 36.9961C7.08797 39.9062 10.8645 41.674 14.5773 42.8308C15.494 41.5691 16.3116 40.228 17.016 38.8145C15.6745 38.3048 14.3897 37.6758 13.1758 36.9455C13.4978 36.7069 13.8129 36.4575 14.1172 36.2008C21.5216 39.664 29.5667 39.664 36.8826 36.2008C37.1906 36.4575 37.5055 36.7069 37.8241 36.9455C36.6065 37.6794 35.3182 38.3084 33.9768 38.8181C34.6811 40.228 35.4952 41.5728 36.4154 42.8344C40.1318 41.6776 43.9119 39.9099 47.8087 36.9961C48.7432 27.1018 46.2125 18.5234 41.1193 10.9174ZM18.0247 31.7471C15.802 31.7471 13.9792 29.6721 13.9792 27.1452C13.9792 24.6183 15.7631 22.5397 18.0247 22.5397C20.2864 22.5397 22.1092 24.6147 22.0702 27.1452C22.0738 29.6721 20.2864 31.7471 18.0247 31.7471ZM32.9751 31.7471C30.7524 31.7471 28.9296 29.6721 28.9296 27.1452C28.9296 24.6183 30.7134 22.5397 32.9751 22.5397C35.2368 22.5397 37.0596 24.6147 37.0207 27.1452C37.0207 29.6721 35.2368 31.7471 32.9751 31.7471Z" fill="#F9FCFE"/>
</svg>
