<svg width="50" height="50" viewBox="0 0 50 50" fill="none" xmlns="http://www.w3.org/2000/svg">
<path d="M25.25 46.5C36.986 46.5 46.5 36.986 46.5 25.25C46.5 13.5139 36.986 4 25.25 4C13.5139 4 4 13.5139 4 25.25C4 36.986 13.5139 46.5 25.25 46.5Z" fill="#2B2E3A"/>
<path d="M20.6849 15.9017C16.3676 15.1154 12.954 15.9384 11.5935 18.2948C10.5783 20.0532 10.8685 22.3846 12.2974 24.8766C12.3256 24.9284 12.3639 24.974 12.41 25.0108C12.4561 25.0475 12.509 25.0747 12.5657 25.0908C12.6225 25.1068 12.6818 25.1114 12.7403 25.1041C12.7988 25.0969 12.8553 25.0781 12.9065 25.0488C12.9576 25.0195 13.0024 24.9802 13.0381 24.9334C13.0739 24.8865 13.0999 24.833 13.1147 24.7759C13.1296 24.7189 13.1328 24.6594 13.1243 24.6011C13.1159 24.5427 13.0958 24.4867 13.0654 24.4362C11.7785 22.1913 11.5279 20.1794 12.3603 18.7375C13.4906 16.7801 16.5353 16.0459 20.5262 16.7727C20.6408 16.7918 20.7584 16.7651 20.8535 16.6982C20.9486 16.6313 21.0136 16.5297 21.0345 16.4154C21.0553 16.301 21.0303 16.183 20.9649 16.0869C20.8995 15.9908 20.7989 15.9242 20.6849 15.9017V15.9017ZM14.5425 27.9058C16.2881 29.8241 18.5561 31.6235 21.1426 33.1166C27.4052 36.7325 34.0724 37.6988 37.3582 35.4585C37.4073 35.4262 37.4495 35.3845 37.4824 35.3357C37.5152 35.2869 37.538 35.2321 37.5494 35.1744C37.5609 35.1167 37.5607 35.0574 37.5489 34.9998C37.5371 34.9422 37.514 34.8875 37.4809 34.8389C37.4478 34.7903 37.4053 34.7488 37.356 34.7169C37.3066 34.6849 37.2514 34.663 37.1935 34.6526C37.1357 34.6422 37.0763 34.6434 37.0189 34.6562C36.9615 34.669 36.9073 34.693 36.8593 34.727C33.9185 36.7321 27.5853 35.8141 21.5853 32.35C19.0762 30.9013 16.88 29.1588 15.1974 27.3098C15.1583 27.2665 15.1111 27.2314 15.0584 27.2064C15.0058 27.1814 14.9487 27.1671 14.8905 27.1642C14.8322 27.1614 14.774 27.1701 14.7192 27.1898C14.6643 27.2094 14.6139 27.2398 14.5708 27.279C14.5277 27.3182 14.4927 27.3656 14.4679 27.4184C14.4432 27.4711 14.4291 27.5283 14.4265 27.5865C14.4238 27.6447 14.4327 27.7029 14.4526 27.7577C14.4725 27.8125 14.5031 27.8628 14.5425 27.9058V27.9058Z" fill="#9FEAF9"/>
<path d="M36.3098 27.3672C39.1367 24.0277 40.1237 20.6688 38.766 18.3174C37.7671 16.587 35.6552 15.6734 32.8484 15.6369C32.732 15.6371 32.6204 15.683 32.5377 15.7648C32.455 15.8466 32.4078 15.9576 32.4063 16.0739C32.4048 16.1903 32.4491 16.3025 32.5297 16.3864C32.6103 16.4703 32.7206 16.5191 32.8369 16.5223C35.3612 16.5551 37.1807 17.3422 37.9993 18.7602C39.1269 20.7133 38.2467 23.7086 35.6339 26.7951C35.5956 26.8394 35.5664 26.8909 35.5481 26.9465C35.5298 27.0021 35.5227 27.0608 35.5272 27.1192C35.5317 27.1776 35.5478 27.2345 35.5745 27.2866C35.6011 27.3388 35.6379 27.3851 35.6826 27.4229C35.7273 27.4608 35.779 27.4894 35.8349 27.5071C35.8907 27.5248 35.9495 27.5312 36.0078 27.526C36.0661 27.5208 36.1229 27.5041 36.1747 27.4769C36.2265 27.4496 36.2724 27.4124 36.3098 27.3672ZM29.0448 16.0491C26.4888 16.5968 23.7681 17.6676 21.1554 19.176C14.6904 22.9086 10.4731 28.4125 11.0588 32.4033C11.0666 32.4614 11.0859 32.5173 11.1155 32.5679C11.1451 32.6185 11.1844 32.6627 11.2312 32.6979C11.278 32.7332 11.3313 32.7588 11.3881 32.7733C11.4449 32.7878 11.504 32.7909 11.562 32.7824C11.6199 32.7739 11.6756 32.7539 11.7258 32.7237C11.7761 32.6935 11.8198 32.6536 11.8545 32.6064C11.8892 32.5592 11.9141 32.5055 11.9279 32.4486C11.9417 32.3916 11.9441 32.3325 11.9349 32.2747C11.4147 28.7312 15.4124 23.5142 21.5981 19.9428C24.1327 18.4794 26.767 17.4427 29.2302 16.9149C29.2879 16.9035 29.3427 16.8808 29.3914 16.848C29.4402 16.8153 29.482 16.7732 29.5143 16.7241C29.5466 16.675 29.5689 16.62 29.5797 16.5623C29.5906 16.5045 29.5898 16.4452 29.5775 16.3878C29.5652 16.3303 29.5416 16.2759 29.508 16.2276C29.4745 16.1794 29.4317 16.1383 29.3821 16.1068C29.3325 16.0753 29.2771 16.054 29.2192 16.0441C29.1613 16.0342 29.102 16.0359 29.0448 16.0491V16.0491Z" fill="#9FEAF9"/>
<path d="M18.5712 35.1699C20.0494 39.2971 22.4674 41.8383 25.1864 41.8383C27.1694 41.8383 29.0041 40.4864 30.4348 38.1066C30.4658 38.0567 30.4865 38.0012 30.4958 37.9433C30.5052 37.8854 30.5029 37.8261 30.4891 37.7691C30.4753 37.712 30.4504 37.6583 30.4156 37.611C30.3809 37.5637 30.3371 37.5237 30.2868 37.4935C30.2365 37.4633 30.1807 37.4433 30.1226 37.4349C30.0646 37.4264 30.0054 37.4295 29.9486 37.4441C29.8917 37.4587 29.8383 37.4845 29.7915 37.5199C29.7447 37.5553 29.7055 37.5997 29.6759 37.6504C28.3902 39.7892 26.8108 40.9528 25.1864 40.9528C22.9277 40.9528 20.771 38.6863 19.4049 34.8716C19.3862 34.8158 19.3565 34.7642 19.3176 34.72C19.2787 34.6757 19.2314 34.6397 19.1784 34.6139C19.1254 34.5882 19.0678 34.5733 19.009 34.5701C18.9502 34.567 18.8913 34.5755 18.8359 34.5954C18.7804 34.6152 18.7295 34.6459 18.686 34.6857C18.6426 34.7255 18.6075 34.7736 18.5829 34.8271C18.5582 34.8806 18.5445 34.9385 18.5425 34.9973C18.5406 35.0562 18.5503 35.1149 18.5713 35.1699H18.5712ZM32.0719 34.3626C32.8372 31.9175 33.2481 29.0969 33.2481 26.1576C33.2481 18.8232 30.681 12.5007 27.0247 10.8772C26.9179 10.8325 26.7978 10.8314 26.6902 10.8741C26.5825 10.9169 26.4959 11.0001 26.449 11.1059C26.402 11.2118 26.3983 11.3318 26.4388 11.4403C26.4792 11.5488 26.5606 11.6371 26.6654 11.6864C29.9265 13.1345 32.3626 19.1348 32.3626 26.1576C32.3626 29.0093 31.9646 31.7407 31.227 34.0981C31.2087 34.1539 31.2016 34.2127 31.2063 34.2712C31.2109 34.3297 31.2271 34.3867 31.2539 34.4389C31.2807 34.4911 31.3177 34.5374 31.3626 34.5752C31.4075 34.613 31.4594 34.6414 31.5154 34.659C31.5714 34.6765 31.6303 34.6827 31.6888 34.6773C31.7472 34.6718 31.8039 34.6548 31.8557 34.6272C31.9075 34.5997 31.9533 34.5621 31.9905 34.5166C32.0276 34.4712 32.0553 34.4189 32.0721 34.3626H32.0719ZM40.4099 33.929C40.4099 32.7587 39.4612 31.8101 38.291 31.8101C37.1208 31.8101 36.1721 32.7587 36.1721 33.929C36.1721 35.0992 37.1208 36.0478 38.291 36.0478C39.4612 36.0478 40.4099 35.0992 40.4099 33.929ZM39.5245 33.929C39.5245 34.091 39.4926 34.2514 39.4306 34.401C39.3686 34.5507 39.2778 34.6866 39.1632 34.8012C39.0487 34.9157 38.9127 35.0066 38.763 35.0686C38.6134 35.1306 38.453 35.1625 38.291 35.1625C38.129 35.1625 37.9686 35.1306 37.819 35.0686C37.6693 35.0066 37.5333 34.9157 37.4188 34.8012C37.3042 34.6866 37.2134 34.5507 37.1514 34.401C37.0894 34.2514 37.0575 34.091 37.0575 33.929C37.0575 33.6018 37.1875 33.2881 37.4188 33.0568C37.6501 32.8254 37.9639 32.6955 38.291 32.6955C38.6181 32.6955 38.9319 32.8254 39.1632 33.0568C39.3945 33.2881 39.5245 33.6018 39.5245 33.929ZM12.0512 36.0478C13.2216 36.0478 14.1703 35.0992 14.1703 33.929C14.1703 32.7587 13.2215 31.8101 12.0512 31.8101C10.8812 31.8101 9.93237 32.7587 9.93237 33.929C9.93237 35.0992 10.8812 36.0478 12.0512 36.0478ZM12.0512 35.1625C11.7241 35.1625 11.4103 35.0325 11.179 34.8012C10.9477 34.5699 10.8177 34.2561 10.8177 33.929C10.8177 33.6018 10.9477 33.2881 11.179 33.0568C11.4103 32.8254 11.7241 32.6955 12.0512 32.6955C12.3784 32.6955 12.6921 32.8254 12.9234 33.0568C13.1548 33.2881 13.2847 33.6018 13.2847 33.929C13.2847 34.2561 13.1548 34.5699 12.9234 34.8012C12.6921 35.0325 12.3784 35.1625 12.0512 35.1625V35.1625Z" fill="#9FEAF9"/>
<path d="M25.1865 13.0386C26.3567 13.0386 27.3053 12.0899 27.3053 10.9197C27.3053 9.74946 26.3567 8.80084 25.1865 8.80084C24.0162 8.80084 23.0676 9.74946 23.0676 10.9197C23.0676 12.0899 24.0162 13.0386 25.1865 13.0386V13.0386ZM25.1865 12.1532C24.8593 12.1532 24.5456 12.0232 24.3143 11.7919C24.0829 11.5606 23.953 11.2468 23.953 10.9197C23.953 10.5926 24.0829 10.2788 24.3143 10.0475C24.5456 9.81616 24.8593 9.6862 25.1865 9.6862C25.5136 9.6862 25.8274 9.81616 26.0587 10.0475C26.29 10.2788 26.42 10.5926 26.42 10.9197C26.42 11.2468 26.29 11.5606 26.0587 11.7919C25.8274 12.0232 25.5136 12.1532 25.1865 12.1532V12.1532ZM25.51 27.6561C24.6825 27.8349 23.8672 27.3089 23.688 26.4813C23.6023 26.0839 23.6778 25.6687 23.8981 25.327C24.1184 24.9853 24.4654 24.7451 24.8628 24.6592C25.6903 24.4804 26.5056 25.0063 26.6849 25.8339C26.8637 26.6615 26.3378 27.4769 25.51 27.6561Z" fill="#9FEAF9"/>
</svg>
