<svg width="50" height="50" viewBox="0 0 50 50" fill="none" xmlns="http://www.w3.org/2000/svg">
<path d="M45 35.9937C43.545 36.3637 42.645 36.01 41.8375 34.7975L36.095 26.8525L35.265 25.7525L28.5588 34.8237C27.7925 35.915 26.9888 36.39 25.5588 36.0037L34.1462 24.4762L26.1512 14.0637C27.5262 13.7962 28.4762 13.9325 29.32 15.1637L35.2763 23.2075L41.2762 15.2075C42.045 14.1162 42.8712 13.7012 44.2512 14.1037L41.1512 18.2137L36.9513 23.6825C36.4513 24.3075 36.52 24.735 36.98 25.3387L45 35.9937ZM5.01 24.2837L5.7125 20.8287C7.625 13.9912 15.4625 11.15 20.8675 15.375C24.0263 17.86 24.8112 21.375 24.655 25.3125H6.85C6.5825 32.4 11.6838 36.6775 18.1875 34.495C20.4688 33.7287 21.8125 31.9425 22.485 29.7075C22.8262 28.5875 23.3913 28.4125 24.4438 28.7325C23.9063 31.5275 22.6937 33.8625 20.1312 35.3237C16.3025 37.5112 10.8375 36.8037 7.9625 33.7637C6.25 32 5.5425 29.765 5.225 27.375C5.175 26.98 5.075 26.6037 5 26.225C5.00667 25.5783 5.01 24.9316 5.01 24.285V24.2837ZM6.8825 23.8087H22.9725C22.8675 18.6837 19.6762 15.0437 15.315 15.0125C10.5275 14.975 7.09 18.5287 6.8825 23.8087Z" fill="white"/>
</svg>
