<svg width="70" height="65" viewBox="0 0 70 65" fill="none" xmlns="http://www.w3.org/2000/svg">
<path d="M34.1385 30.7783L18.6796 39.7102C18.014 40.0966 17.1981 40.0966 16.5325 39.7102L1.07356 30.7783C0.407965 30.3918 0 29.6833 0 28.9319V11.0681C0 10.2952 0.407965 9.60818 1.07356 9.22167L16.5325 0.289777C17.1981 -0.0965924 18.014 -0.0965924 18.6796 0.289777L34.1385 9.22167C34.8041 9.60818 35.2121 10.3167 35.2121 11.0681V28.9319C35.1906 29.6833 34.7826 30.3918 34.1385 30.7783Z" fill="#8D6748"/>
<path d="M17.5845 2.71606C17.2625 2.71606 16.9404 2.80189 16.6613 2.97369L3.30646 10.6817C2.72669 11.0038 2.38324 11.6264 2.38324 12.2705V27.6865C2.38324 28.3521 2.72669 28.9533 3.30646 29.2754L16.6613 36.9834C16.9404 37.1552 17.2625 37.2411 17.5845 37.2411C17.9065 37.2411 18.2287 37.1552 18.5077 36.9834L31.8626 29.2754C32.4424 28.9533 32.7858 28.3306 32.7858 27.6866V12.2705C32.7858 11.6049 32.4424 11.0038 31.8626 10.6817L18.5077 2.97369C18.2287 2.80189 17.9065 2.71606 17.5845 2.71606ZM17.5845 3.3602C17.7992 3.3602 17.9925 3.42457 18.1857 3.53199L31.5405 11.24C31.9055 11.4547 32.1417 11.8627 32.1417 12.2921V27.7081C32.1417 28.1375 31.9055 28.5453 31.5405 28.7601L18.1857 36.4681C17.9925 36.5755 17.7992 36.6399 17.5845 36.6399C17.3698 36.6399 17.1551 36.5755 16.9833 36.4681L3.62859 28.7601C3.26354 28.5453 3.02737 28.1375 3.02737 27.7081V12.2921C3.02737 11.8627 3.26354 11.4547 3.62859 11.24L16.9833 3.53199C17.1766 3.42457 17.3913 3.3602 17.5845 3.3602ZM16.3499 16.8009H18.1534C18.2179 16.8009 18.2609 16.7793 18.3038 16.7364C19.3773 15.5341 19.4848 13.022 19.4848 12.2706C19.4848 12.1633 19.3988 12.0558 19.27 12.0558H17.2517H15.2335C15.1262 12.0558 15.0187 12.1417 15.0187 12.2706C15.0187 13.0005 15.1262 15.5127 16.1997 16.7364C16.2426 16.7793 16.2855 16.8009 16.3499 16.8009ZM15.8561 12.7214H17.2731H18.6903C18.7976 12.7214 18.905 12.8073 18.905 12.9361C18.905 13.5374 18.7976 15.2335 18.0676 16.1138C18.0032 16.1568 17.9603 16.1783 17.8958 16.1783H16.6291C16.5646 16.1783 16.5217 16.1568 16.4788 16.1138C15.7487 15.2551 15.6629 13.5374 15.6414 12.9361C15.6414 12.8289 15.7272 12.7214 15.8561 12.7214ZM17.6597 11.6264C17.6597 11.6264 18.4327 11.1756 17.9602 10.3596C17.6811 9.9302 17.5524 9.56529 17.6597 9.41495C17.3806 9.75854 16.9083 10.1235 17.4235 10.8965C17.5953 11.0897 17.6811 11.4976 17.6597 11.6264ZM16.8009 11.6908C16.8009 11.6908 17.3161 11.3903 16.9941 10.832C16.8009 10.5529 16.715 10.2953 16.8009 10.2093C16.6076 10.4455 16.3071 10.6817 16.6505 11.2185C16.7579 11.3258 16.8009 11.605 16.8009 11.6908ZM16.7364 15.9206H17.81C17.8529 15.9206 17.8958 15.8991 17.9387 15.8562C18.3038 15.4268 18.4756 14.7612 18.5614 14.1814C18.5614 14.1814 18.54 14.3747 18.0247 14.5679C17.3162 14.8256 16.0709 14.6538 16.0709 14.6538C16.1781 15.1047 16.3499 15.5341 16.6076 15.8562C16.629 15.8991 16.6935 15.9206 16.7364 15.9206ZM8.66343 21.9539V17.6598H7.86896L6.55924 19.678L5.24951 17.6598H4.45518V21.9753H5.2066V18.905L6.53778 20.9018H6.55924L7.91201 18.8835V21.9539H8.66343ZM13.4729 17.7457C13.1937 17.6382 12.8932 17.5739 12.5712 17.5739C12.249 17.5739 11.9485 17.6168 11.6693 17.7457C11.3902 17.853 11.154 18.0248 10.9608 18.218C10.7461 18.4327 10.5959 18.6689 10.4884 18.9265C10.3811 19.2056 10.3166 19.4847 10.3166 19.7854V19.8068C10.3166 20.1074 10.3811 20.408 10.4884 20.6657C10.5959 20.9447 10.7461 21.1809 10.9393 21.3742C11.1326 21.5674 11.3687 21.7392 11.6478 21.8465C11.927 21.9539 12.2276 22.0183 12.5496 22.0183C12.8717 22.0183 13.1723 21.9754 13.4515 21.8465C13.7306 21.7392 13.9667 21.5674 14.16 21.3742C14.3747 21.1595 14.5249 20.9233 14.6323 20.6657C14.7396 20.3866 14.8041 20.1074 14.8041 19.8068V19.7854C14.8041 19.4847 14.7396 19.1841 14.6323 18.9265C14.5249 18.6474 14.3747 18.4113 14.1814 18.218C13.9882 18.0248 13.752 17.853 13.4729 17.7457ZM13.9882 19.8283C13.9882 20.0215 13.9453 20.2148 13.8808 20.408C13.7949 20.5797 13.7091 20.7515 13.5802 20.8804C13.4515 21.0091 13.3011 21.1165 13.1293 21.2024C12.9575 21.2883 12.7643 21.3312 12.5496 21.3312C12.3565 21.3312 12.1418 21.2883 11.97 21.2024C11.7982 21.1165 11.6478 21.0091 11.5191 20.8804C11.3902 20.73 11.2829 20.5797 11.2184 20.3866C11.154 20.1933 11.1111 20.0001 11.1111 19.7854V19.7639C11.1111 19.5706 11.154 19.3774 11.2184 19.1841C11.3044 19.0123 11.3902 18.8407 11.5191 18.7118C11.6478 18.5829 11.7982 18.4756 11.97 18.3897C12.1418 18.3038 12.3349 18.2609 12.5496 18.2609C12.7643 18.2609 12.9575 18.3038 13.1293 18.3897C13.3011 18.4756 13.4515 18.5829 13.5802 18.7118C13.7091 18.8621 13.8164 19.0123 13.8808 19.2056C13.9453 19.3988 13.9882 19.5921 13.9882 19.8068V19.8283ZM17.1659 19.1841C17.2517 19.0123 17.3376 18.8405 17.4664 18.7118C17.5953 18.5829 17.7456 18.4756 17.9173 18.3897C18.0891 18.3038 18.2609 18.2609 18.4756 18.2609C18.7332 18.2609 18.9479 18.3038 19.1412 18.4111C19.3344 18.5185 19.5062 18.6474 19.6779 18.7976L20.1718 18.2395C20.0644 18.132 19.9571 18.0462 19.8497 17.9602C19.7424 17.8744 19.6135 17.81 19.4848 17.7455C19.3344 17.7026 19.2055 17.6597 19.0337 17.6168C18.8621 17.5953 18.6903 17.5739 18.497 17.5739C18.1534 17.5739 17.8744 17.6382 17.5953 17.7455C17.3162 17.853 17.08 18.0248 16.8868 18.218C16.6935 18.4327 16.5432 18.6689 16.4359 18.9265C16.3285 19.1841 16.2641 19.4847 16.2641 19.7854V19.8068C16.2641 20.1074 16.3285 20.3864 16.4359 20.6657C16.5432 20.9447 16.6935 21.1809 16.8868 21.3742C17.08 21.5674 17.3162 21.7392 17.5738 21.8465C17.8314 21.9539 18.1105 22.0183 18.4327 22.0183C18.6259 22.0183 18.819 22.0183 19.0123 21.9754C19.1626 21.9539 19.3344 21.8894 19.4632 21.825C19.592 21.7607 19.7209 21.6962 19.8497 21.5889C19.9786 21.4815 20.0858 21.3956 20.1933 21.2667L19.6995 20.7729C19.5062 20.9447 19.313 21.0736 19.1412 21.1809C18.9694 21.2883 18.7332 21.3312 18.4756 21.3312C18.2823 21.3312 18.0891 21.2667 17.9173 21.2024C17.7456 21.138 17.5953 21.0091 17.4664 20.8804C17.3376 20.73 17.2302 20.5797 17.1659 20.3864C17.1015 20.1933 17.0584 20.0001 17.0584 19.7854V19.7639C17.0584 19.5706 17.1015 19.3774 17.1659 19.1841ZM21.6962 17.6597V21.9538H22.4476V20.1503H24.5089V21.9538H25.2603V17.6597H24.5089V19.4418H22.4476V17.6597H21.6962ZM29.941 20.9233L30.3704 21.9539H31.1648L29.2754 17.6383H28.5882L26.6989 21.9539H27.4718L27.9226 20.9233H29.941ZM28.9318 18.54L29.6618 20.2577H28.2019L28.9318 18.54ZM3.91842 23.5427H31.2936V23.3065H3.91842V23.5427ZM19.6565 15.2335C19.6565 15.3194 19.635 15.3839 19.635 15.4697H31.2936V15.2335H19.6565ZM14.8685 15.2335H3.91835V15.4697H14.8899C14.8899 15.3839 14.8685 15.3194 14.8685 15.2335Z" fill="white"/>
<path d="M36.4981 54.1353L52.3205 63.2706L68.1438 54.1353V35.8651L52.3205 26.7301L36.4981 35.8651V54.1353ZM52.3205 65L35 54.9999V35.0004L52.3205 25L69.6419 35.0004V54.9999L52.3205 65Z" fill="#A1070C"/>
<path d="M36.2962 35.7483L52.3209 26.4965L68.3457 35.7483V54.2521L52.3209 63.5039L36.2962 54.2521V35.7483Z" fill="url(#paint0_linear_224_16)"/>
<path d="M59.6732 38.2301C59.6732 38.957 59.5297 39.679 59.2428 40.3963C58.9559 41.1136 58.5709 41.7783 58.088 42.3904C57.605 43.0025 57.0479 43.5381 56.4167 43.9971C55.7854 44.4562 55.1303 44.7861 54.4513 44.987L54.15 44.4849C54.5517 44.284 54.9199 44.0258 55.2547 43.7102C55.5894 43.3946 55.8763 43.0383 56.1154 42.6414C56.3545 42.2445 56.5386 41.8237 56.6677 41.379C56.7968 40.9343 56.8614 40.4824 56.8614 40.0233C56.8614 39.4973 56.7849 39 56.6319 38.5314C56.4788 38.0627 56.2541 37.6539 55.9576 37.3048C55.6611 36.9557 55.2953 36.6808 54.8601 36.4799C54.425 36.2791 53.9253 36.1786 53.361 36.1786C52.6724 36.1786 52.0412 36.3125 51.4674 36.5803C50.8935 36.8481 50.3771 37.2092 49.918 37.6634C49.4589 38.1177 49.0597 38.639 48.7201 39.2271C48.3806 39.8153 48.0985 40.4322 47.8737 41.0777C47.649 41.7233 47.4792 42.376 47.3645 43.036C47.2497 43.6959 47.1923 44.3175 47.1923 44.9009C47.1923 45.4939 47.2545 46.106 47.3788 46.7372C47.5031 47.3684 47.6848 47.99 47.9239 48.6021C48.163 49.2142 48.4595 49.7928 48.8134 50.338C49.1672 50.8831 49.5761 51.3613 50.0399 51.7726C50.5038 52.1838 51.0202 52.5114 51.5893 52.7553C52.1584 52.9991 52.7776 53.1211 53.4471 53.1211C53.9062 53.1211 54.3533 53.0589 54.7884 52.9346C55.2236 52.8102 55.642 52.6429 56.0437 52.4325C56.4454 52.2221 56.8255 51.9734 57.1842 51.6865C57.5428 51.3996 57.8752 51.0887 58.1812 50.754L58.6546 51.2131C58.2338 51.7678 57.7341 52.301 57.1555 52.8126C56.5769 53.3243 55.9528 53.7786 55.2833 54.1755C54.6139 54.5724 53.9133 54.888 53.1817 55.1223C52.45 55.3566 51.7256 55.4738 51.0083 55.4738C50.3101 55.4738 49.6526 55.3518 49.0357 55.108C48.4189 54.8641 47.8522 54.5341 47.3358 54.1181C46.8193 53.7021 46.3579 53.2143 45.9514 52.6548C45.5449 52.0953 45.2006 51.5 44.9185 50.8688C44.6364 50.2376 44.4212 49.5872 44.2729 48.9177C44.1247 48.2483 44.0506 47.5931 44.0506 46.9524C44.0506 46.0247 44.206 45.0707 44.5168 44.0904C44.8276 43.1101 45.2556 42.1585 45.8008 41.2356C46.3459 40.3126 46.9891 39.4399 47.7303 38.6174C48.4715 37.7949 49.2701 37.0777 50.126 36.4656C50.982 35.8535 51.8762 35.3681 52.8087 35.0095C53.7412 34.6508 54.6713 34.4715 55.599 34.4715C56.1728 34.4715 56.7084 34.5552 57.2057 34.7225C57.703 34.8899 58.1334 35.1314 58.4968 35.447C58.8602 35.7626 59.1472 36.1547 59.3576 36.6234C59.568 37.092 59.6732 37.6276 59.6732 38.2301Z" fill="#A1070C"/>
<defs>
<linearGradient id="paint0_linear_224_16" x1="52.3209" y1="43.2338" x2="52.3209" y2="63.5039" gradientUnits="userSpaceOnUse">
<stop stop-color="#F7F6F3"/>
<stop offset="1" stop-color="#FEF6D5"/>
</linearGradient>
</defs>
</svg>
