<svg width="50" height="50" viewBox="0 0 50 50" fill="none" xmlns="http://www.w3.org/2000/svg">
<path d="M32.8133 19.7156C30.7593 10.0266 26.4783 7.44731 25.3863 5.62399C24.936 4.82078 24.537 3.98587 24.1923 3.125C24.1346 3.98573 24.0286 4.52799 23.3444 5.18072C21.9706 6.49047 16.1361 11.5745 15.645 22.5833C15.1876 32.8475 22.7018 39.1768 23.6945 39.831C24.4579 40.2326 25.3876 39.8396 25.8411 39.4709C29.4633 36.8127 34.4124 29.726 32.8173 19.7156" fill="#10AA50"/>
<path d="M24.444 34.375C24.2809 36.9583 24.1641 38.4593 23.75 39.9355C23.75 39.9355 24.0218 42.3948 24.2127 45H24.8882C25.0493 43.1655 25.2953 41.3444 25.625 39.546C24.7505 39.0034 24.4776 36.6418 24.444 34.375Z" fill="#B8C4C2"/>
<path d="M25.9461 39.375C24.9315 38.8666 24.638 36.4861 24.5928 34.2682C24.8437 30.6098 24.9169 26.9395 24.8119 23.2727C24.7588 21.3486 24.8372 5.45228 24.375 3.125C24.6912 3.91323 25.0554 4.67772 25.4654 5.4134C26.5464 7.24527 30.7857 9.83466 32.8177 19.5614C34.4008 29.5935 29.528 36.6891 25.9461 39.375Z" fill="#12924F"/>
<path d="M47.1873 28.7499C47.0024 28.7499 46.8217 28.6952 46.6679 28.5928C46.514 28.4903 46.3939 28.3447 46.3226 28.1741C46.2513 28.0036 46.232 27.8158 46.2671 27.6343C46.3022 27.4528 46.3902 27.2858 46.52 27.1542C46.6498 27.0225 46.8156 26.9323 46.9966 26.8946C47.1775 26.857 47.3656 26.8737 47.5371 26.9427C47.7086 27.0117 47.8559 27.1298 47.9604 27.2822C48.065 27.4347 48.1221 27.6146 48.1247 27.7995C48.128 27.9241 48.1062 28.0481 48.0604 28.1641C48.0147 28.2801 47.946 28.3856 47.8584 28.4744C47.7709 28.5631 47.6663 28.6333 47.551 28.6807C47.4356 28.728 47.3119 28.7516 47.1873 28.7499V28.7499ZM47.1873 26.9598C47.0184 26.9586 46.853 27.0077 46.712 27.1007C46.571 27.1936 46.4608 27.3264 46.3952 27.482C46.3297 27.6377 46.3119 27.8093 46.344 27.9752C46.3761 28.141 46.4567 28.2936 46.5756 28.4135C46.6944 28.5335 46.8462 28.6155 47.0117 28.6492C47.1772 28.6828 47.349 28.6666 47.5053 28.6025C47.6615 28.5384 47.7953 28.4294 47.8895 28.2893C47.9838 28.1492 48.0344 27.9842 48.0348 27.8153C48.037 27.703 48.0167 27.5914 47.9749 27.4871C47.9332 27.3829 47.871 27.288 47.792 27.2083C47.7129 27.1285 47.6187 27.0654 47.5148 27.0227C47.411 26.98 47.2996 26.9586 47.1873 26.9598V26.9598ZM47.4133 28.4052L47.1715 27.8837H46.9765V28.4052H46.8347V27.2186H47.1845C47.4449 27.2186 47.5534 27.3316 47.5534 27.5503C47.5534 27.7243 47.4715 27.8328 47.3189 27.8661L47.5687 28.4035L47.4133 28.4052ZM46.9822 27.761H47.1873C47.3534 27.761 47.4167 27.7045 47.4167 27.5531C47.4167 27.4017 47.3562 27.3502 47.1692 27.3502H46.9822V27.761Z" fill="white"/>
<path d="M35.8717 26.7118C36.0757 26.8978 36.4833 26.9745 36.8427 26.9745C37.3084 26.9745 37.765 26.876 38.2112 26.4164C38.6656 25.9453 38.9781 25.2244 38.9781 24.0734C38.9781 22.9675 38.6092 22.0699 37.8523 21.5444C37.4252 21.2381 36.8717 21.1173 36.2406 21.1173C36.0589 21.1173 35.8717 21.1282 35.7654 21.1831C35.7218 21.2224 35.6909 21.2771 35.6777 21.3386C35.6586 21.5356 35.6586 23.0353 35.6586 23.9221C35.6586 24.8311 35.6586 26.0987 35.6777 26.2541C35.6877 26.3858 35.7459 26.6169 35.8717 26.7138V26.7118ZM33.9343 20.625C34.0993 20.625 34.7263 20.6576 35.018 20.6576C35.5632 20.6576 35.9399 20.625 36.959 20.625C37.8132 20.625 38.532 20.8877 39.0459 21.391C39.6674 22.0046 40 22.8581 40 23.8982C40 25.3762 39.4093 26.2303 38.8155 26.7118C38.2248 27.2155 37.4565 27.5 36.362 27.5C35.7795 27.5 34.7794 27.4782 33.9448 27.4674H33.9275C33.8884 27.3798 33.9988 27.0382 34.067 27.0294C34.2942 27.0004 34.3542 26.99 34.4587 26.9408C34.6349 26.8584 34.6763 26.7558 34.6958 26.3946C34.7249 25.7157 34.7154 24.9057 34.7154 23.9858C34.7154 23.3292 34.7249 22.0481 34.7058 21.6428C34.6763 21.3039 34.5509 21.2163 34.2969 21.1505C34.1168 21.1069 33.9348 21.074 33.7517 21.052C33.7326 20.9862 33.8816 20.6893 33.9302 20.625" fill="white"/>
<path d="M42.7285 21.1605C42.6861 21.1714 42.6328 21.2811 42.6328 21.3354C42.6219 21.7292 42.6114 22.7563 42.6114 23.4667C42.6141 23.4803 42.6206 23.4927 42.6301 23.5025C42.6396 23.5122 42.6516 23.5189 42.6647 23.5215C42.8027 23.5324 43.1436 23.5438 43.4311 23.5438C43.8357 23.5438 44.0699 23.4889 44.1975 23.4232C44.5383 23.2483 44.6958 22.8654 44.6958 22.4505C44.6958 21.4994 44.057 21.1388 43.1097 21.1388C42.9816 21.1371 42.8536 21.1444 42.7265 21.1605H42.7285ZM45.1433 25.5328C45.1433 24.5709 44.4616 24.0245 43.2158 24.0245C43.163 24.0245 42.7674 24.0136 42.6732 24.0353C42.6413 24.0462 42.6094 24.0679 42.6094 24.0902C42.6094 24.7789 42.5984 25.8825 42.6308 26.3198C42.6523 26.5055 42.7803 26.7678 42.9393 26.8444C43.1097 26.9427 43.4929 26.9645 43.759 26.9645C44.4935 26.9645 45.1433 26.5386 45.1433 25.5328V25.5328ZM40.8051 20.625C40.9012 20.625 41.1843 20.6576 41.9083 20.6576C42.5895 20.6576 43.1431 20.6359 43.8018 20.6359C44.6215 20.6359 45.7497 20.9422 45.7497 22.2099C45.7497 22.8308 45.3242 23.3358 44.7705 23.5764C44.7386 23.5872 44.7386 23.609 44.7705 23.6198C45.5584 23.8268 46.25 24.3303 46.25 25.2922C46.25 26.2323 45.6859 26.8227 44.8662 27.1942C44.3679 27.4239 43.7485 27.5 43.1222 27.5C42.6433 27.5 41.3597 27.4483 40.6461 27.4565C40.5713 27.4239 40.7144 27.0736 40.7781 27.0193C40.9416 27.0141 41.1038 26.9877 41.261 26.9407C41.5161 26.8755 41.5465 26.7901 41.5784 26.3963C41.5998 26.0574 41.5998 24.8441 41.5998 23.9805C41.5998 22.7997 41.6108 22.0024 41.5998 21.6086C41.5894 21.3028 41.4827 21.204 41.2804 21.1497C41.121 21.1166 40.8549 21.084 40.6421 21.0514C40.5888 20.9965 40.7527 20.6685 40.8056 20.625" fill="white"/>
<path d="M3.22663 27.5C3.1987 27.4232 3.18739 27.3402 3.19363 27.2576C3.1912 27.2013 3.20261 27.1453 3.22663 27.0958C3.36692 27.0732 3.50593 27.0415 3.64296 27.001C3.83487 26.9476 3.90697 26.8306 3.91814 26.557C3.94962 25.9104 3.95165 24.6971 3.94048 23.8444V23.8194C3.94048 23.7274 3.94048 23.6025 3.83894 23.5145C3.66046 23.3893 3.4667 23.2937 3.2637 23.2307C3.17282 23.2006 3.12255 23.1472 3.12509 23.0848C3.12763 23.0223 3.185 22.9485 3.3033 22.9224C3.61757 22.8866 4.44108 22.6669 4.7645 22.5C4.7978 22.5485 4.81324 22.6095 4.80765 22.6703C4.80765 22.7078 4.80257 22.7475 4.79902 22.7884C4.78988 22.9088 4.77973 23.0456 4.77973 23.1818C4.78172 23.1984 4.7878 23.214 4.79729 23.2269C4.80678 23.2398 4.8193 23.2495 4.83344 23.2548C4.84758 23.2602 4.86278 23.2611 4.87733 23.2573C4.89188 23.2535 4.9052 23.2453 4.91579 23.2335C5.53165 22.6936 6.08353 22.5011 6.36633 22.5011C6.8319 22.5011 7.19441 22.7498 7.47517 23.2619C7.48161 23.2743 7.49078 23.2846 7.50181 23.2918C7.51283 23.2991 7.52534 23.303 7.53813 23.3033C7.54976 23.3032 7.56119 23.3 7.57144 23.2938C7.5817 23.2877 7.59048 23.2789 7.59703 23.2681C8.16313 22.7878 8.72415 22.5011 9.09986 22.5011C9.98734 22.5011 10.5179 23.2443 10.5179 24.4882C10.5179 24.8459 10.5149 25.2995 10.5118 25.7224C10.5093 26.0937 10.5067 26.4418 10.5067 26.6825C10.5067 26.7392 10.5768 26.9027 10.6819 26.9351C10.8119 27.0061 10.9992 27.0424 11.2363 27.0878H11.2455C11.2632 27.1594 11.2256 27.437 11.1896 27.4938C11.1307 27.4938 11.0495 27.4881 10.9479 27.4824C10.7636 27.4722 10.5108 27.458 10.2168 27.458C9.62686 27.458 9.31868 27.4705 9.02421 27.4921C9.00187 27.4097 8.99425 27.144 9.02116 27.0884C9.14311 27.0671 9.26381 27.0377 9.38265 27.0004C9.57051 26.9311 9.62483 26.8358 9.63651 26.557C9.64108 26.3589 9.6751 24.6131 9.61468 24.1986C9.55883 23.7689 9.26943 23.2659 8.63631 23.2659C8.40124 23.2659 8.02198 23.3754 7.66049 23.682C7.63807 23.7104 7.62546 23.7469 7.62495 23.7848V23.7933C7.6676 24.017 7.6676 24.2781 7.6676 24.6727C7.6676 24.8998 7.6676 25.1365 7.66506 25.3733C7.66252 25.8547 7.66049 26.3089 7.6676 26.6524C7.6676 26.8863 7.79402 26.9425 7.89607 26.9873C7.95141 27.001 7.99507 27.0129 8.03924 27.0242C8.12403 27.0475 8.21237 27.0714 8.34387 27.0946C8.36334 27.1944 8.3616 27.2978 8.33879 27.3967C8.33341 27.4338 8.32038 27.469 8.30072 27.4994C7.97273 27.4869 7.63612 27.4762 7.15024 27.4762C7.003 27.4762 6.76285 27.483 6.55063 27.4892C6.37852 27.4943 6.21605 27.4994 6.12364 27.5C6.09865 27.4341 6.08754 27.3626 6.09115 27.2911C6.08596 27.2237 6.09775 27.156 6.12517 27.0958L6.25565 27.0691C6.36938 27.0464 6.46787 27.0271 6.56028 27.001C6.72071 26.9442 6.78113 26.8465 6.79281 26.6177C6.82429 26.0841 6.84866 24.5461 6.78113 24.1612C6.66639 23.5435 6.35211 23.2301 5.84643 23.2301C5.55044 23.2301 5.17625 23.3896 4.87061 23.6457C4.84121 23.6777 4.81805 23.7162 4.80258 23.7587C4.78712 23.8012 4.77968 23.8468 4.78074 23.8926C4.78074 24.076 4.78074 24.294 4.78074 24.5279C4.78074 25.3 4.77617 26.2612 4.79293 26.6768C4.80308 26.8051 4.8437 26.9572 5.05846 27.0129C5.10568 27.0282 5.18691 27.043 5.28135 27.0606C5.33567 27.0708 5.39508 27.0816 5.45651 27.0941C5.47604 27.23 5.46611 27.3692 5.42757 27.5C5.33313 27.5 5.21687 27.4932 5.08385 27.4869C4.88076 27.4767 4.62691 27.4642 4.34005 27.4642C4.0009 27.4642 3.76481 27.4767 3.57543 27.4869C3.448 27.4938 3.33782 27.4994 3.22765 27.5" fill="white"/>
<path d="M13.8435 22.9995C13.6664 22.9953 13.4923 23.0509 13.3431 23.1591C12.9792 23.41 12.7938 23.9112 12.7938 24.6476C12.7938 26.026 13.4025 26.9888 14.2742 26.9888C14.5079 26.9972 14.7358 26.9057 14.9128 26.7324C15.1807 26.4849 15.3229 25.9787 15.3229 25.2701C15.3229 23.9123 14.7279 22.9995 13.8425 22.9995H13.8435ZM14.0103 27.5C12.4357 27.5 11.875 26.1901 11.875 24.9647C11.875 24.1086 12.1835 23.4395 12.7923 22.975C13.2187 22.6757 13.7081 22.5117 14.2094 22.5C15.4107 22.5 16.25 23.4795 16.25 24.8829C16.25 25.8363 15.915 26.5894 15.2807 27.06C14.9761 27.2714 14.4468 27.5 14.0103 27.5" fill="white"/>
<path d="M30.0925 22.9995C29.9151 22.9949 29.7405 23.0505 29.5912 23.1591C29.2272 23.41 29.0418 23.9112 29.0418 24.6476C29.0418 26.026 29.6505 26.9888 30.5222 26.9888C30.7566 26.9978 30.9853 26.9062 31.1628 26.7324C31.4307 26.4849 31.5724 25.9787 31.5724 25.2701C31.5724 23.9123 30.9779 22.9995 30.0925 22.9995V22.9995ZM30.2603 27.5C28.6857 27.5 28.125 26.1901 28.125 24.9652C28.125 24.1081 28.4335 23.4395 29.0428 22.975C29.4689 22.6755 29.9582 22.5115 30.4594 22.5C31.6607 22.5 32.5 23.4801 32.5 24.8824C32.5 25.8369 32.165 26.5894 31.5307 27.0595C31.2261 27.2714 30.6968 27.5 30.2603 27.5" fill="white"/>
<path d="M24.2879 22.9383C23.8078 22.9383 23.4971 23.3547 23.4971 23.9993C23.4971 24.6438 23.7646 25.41 24.5166 25.41C24.6457 25.41 24.8797 25.3471 24.9957 25.2069C25.1705 25.0304 25.287 24.6657 25.287 24.2808C25.287 23.44 24.9142 22.9383 24.2904 22.9383H24.2879ZM24.2282 27.387C24.0926 27.3853 23.9588 27.4221 23.8399 27.4936C23.4598 27.7602 23.2835 28.0268 23.2835 28.3365C23.2835 28.6266 23.386 28.8574 23.6064 29.0622C23.8734 29.3106 24.2336 29.4316 24.7069 29.4316C25.6385 29.4316 26.056 28.8814 26.056 28.3365C26.056 27.9569 25.8827 27.7026 25.5259 27.5586C25.2511 27.4483 24.7918 27.3875 24.2297 27.3875L24.2282 27.387ZM24.2918 30C23.7326 30 23.3296 29.8704 22.9855 29.5793C22.6505 29.2957 22.5 28.8745 22.5 28.5834C22.5036 28.3958 22.5688 28.2159 22.6835 28.0769C22.7806 27.9553 23.0063 27.7277 23.5282 27.3337C23.5363 27.3299 23.5432 27.3236 23.548 27.3155C23.5529 27.3074 23.5554 27.298 23.5554 27.2883C23.5556 27.2776 23.5524 27.267 23.5464 27.2585C23.5404 27.25 23.5319 27.244 23.5224 27.2414C23.0927 27.0607 22.9631 26.7616 22.9238 26.6016C22.9238 26.5958 22.9238 26.5867 22.9194 26.5766C22.9073 26.5136 22.8956 26.4539 22.9738 26.3926C23.034 26.3457 23.1301 26.2828 23.233 26.2161C23.3783 26.1278 23.5177 26.0282 23.6501 25.9181C23.6572 25.9097 23.6624 25.8996 23.6655 25.8887C23.6685 25.8777 23.6692 25.8661 23.6675 25.8548C23.6658 25.8434 23.6618 25.8327 23.6557 25.8233C23.6497 25.814 23.6418 25.8063 23.6326 25.8008C22.9966 25.5662 22.6762 25.0475 22.6762 24.2546C22.6743 24.0074 22.7266 23.7633 22.8289 23.5431C22.9312 23.3228 23.0803 23.1329 23.2636 22.9894C23.5195 22.7671 24.1617 22.5 24.5778 22.5H24.602C25.0297 22.5112 25.271 22.6098 25.605 22.7453C25.795 22.8207 25.9963 22.8558 26.1982 22.8487C26.5521 22.8487 26.707 22.7255 26.84 22.5821C26.8616 22.6467 26.8731 22.7148 26.874 22.7836C26.8821 22.9476 26.8416 23.11 26.7584 23.2464C26.6861 23.3568 26.5157 23.4368 26.3599 23.4368C26.3439 23.4368 26.3283 23.4368 26.3113 23.4341C26.2293 23.4278 26.1481 23.4129 26.0686 23.3898L26.0288 23.4053C26.0162 23.4256 26.0244 23.448 26.0346 23.4768C26.0371 23.4824 26.0391 23.4883 26.0404 23.4943C26.0689 23.6366 26.0882 23.781 26.0982 23.9262C26.0982 24.7553 25.8006 25.1162 25.4788 25.3839C25.1676 25.6403 24.798 25.7975 24.4108 25.8381V25.8381C24.4025 25.8381 24.3622 25.8419 24.2865 25.8493C24.2379 25.8541 24.1748 25.8605 24.1656 25.8605H24.1564C24.0865 25.8819 23.9039 25.9773 23.9039 26.1548C23.9039 26.302 23.9865 26.4849 24.3812 26.5179L24.6365 26.5376C25.1569 26.5776 25.8069 26.6272 26.1128 26.7408C26.3157 26.8191 26.4909 26.9657 26.6135 27.1598C26.7361 27.3538 26.7999 27.5854 26.7958 27.8215C26.7958 28.5653 26.3142 29.2648 25.5079 29.6924C25.1276 29.8918 24.7113 29.9944 24.2899 29.9925" fill="white"/>
<path d="M21.8524 27.0278C21.6318 26.9926 21.4707 26.9568 21.2806 26.8505C21.2432 26.8044 21.2187 26.7458 21.2101 26.6826C21.1899 26.3162 21.1899 25.2526 21.1899 24.5566C21.1899 23.9888 21.1101 23.4936 20.9082 23.1384C20.6674 22.7361 20.3265 22.5 19.8851 22.5C19.494 22.5 18.9724 22.8189 18.5414 23.2564C18.531 23.2682 18.4648 23.3431 18.4662 23.2268C18.4676 23.1104 18.4827 22.8743 18.4921 22.7232C18.4962 22.6831 18.4925 22.6424 18.481 22.6043C18.4696 22.5662 18.4509 22.5318 18.4263 22.5039C18.1446 22.6718 17.3544 22.8955 17.0619 22.9297C16.8487 22.9789 16.7947 23.2234 17.0224 23.3079H17.0257C17.208 23.3678 17.382 23.459 17.5422 23.5787C17.6324 23.6615 17.6225 23.7795 17.6225 23.8741C17.6324 24.6657 17.6324 25.8831 17.6023 26.545C17.5925 26.8051 17.5319 26.8997 17.3713 26.9472L17.3863 26.9411C17.264 26.9776 17.14 27.0053 17.0149 27.0239C16.9647 27.0826 16.9647 27.4256 17.0149 27.4966C17.1154 27.4966 17.6253 27.4614 18.0479 27.4614C18.6292 27.4614 18.9301 27.4966 19.0808 27.4966C19.1414 27.4138 19.1611 27.0949 19.1212 27.0239C18.9823 27.0164 18.8444 26.9926 18.7094 26.9528C18.5493 26.9058 18.509 26.8107 18.4991 26.5987C18.4794 26.0426 18.4794 24.861 18.4794 24.057C18.4794 23.8332 18.5291 23.7264 18.5892 23.6654C18.7897 23.4528 19.1212 23.3112 19.4119 23.3112C19.6936 23.3112 19.8814 23.4175 20.0222 23.5591C20.1863 23.7297 20.2892 23.9688 20.3096 24.2271C20.3495 24.6747 20.3392 25.5749 20.3392 26.3531C20.3392 26.7788 20.3096 26.8857 20.1791 26.9327C20.119 26.9679 19.9584 27.0037 19.7678 27.0272C19.7077 27.0983 19.7274 27.4289 19.7678 27.5C20.0283 27.5 20.3312 27.4648 20.7707 27.4648C21.3223 27.4648 21.6735 27.5 21.8139 27.5C21.874 27.4172 21.8942 27.1084 21.8543 27.0272" fill="white"/>
</svg>
