<svg width="50" height="50" viewBox="0 0 50 50" fill="none" xmlns="http://www.w3.org/2000/svg">
<path d="M39.0599 5.29745L29.6704 19.232C29.0211 20.1809 30.2697 21.3296 31.1687 20.5305L40.4084 12.4895C40.6582 12.2897 41.0078 12.4395 41.0078 12.7891V37.9112C41.0078 38.2608 40.5583 38.4107 40.3585 38.1609L12.3896 4.69811C11.4906 3.59933 10.192 3 8.74362 3H7.74473C5.14761 3 3 5.14761 3 7.79467V43.1554C3 45.8024 5.14761 47.9501 7.79467 47.9501C9.44284 47.9501 10.9911 47.101 11.8901 45.6526L21.2797 31.7181C21.929 30.7691 20.6804 29.6204 19.7814 30.4195L10.5416 38.4107C10.2919 38.6104 9.94229 38.4606 9.94229 38.111V13.0388C9.94229 12.6892 10.3918 12.5394 10.5916 12.7891L38.5605 46.2519C39.4595 47.3507 40.808 47.9501 42.2064 47.9501H43.2053C45.8524 47.9501 48 45.8024 48 43.1554V7.79467C48 5.14761 45.8524 3 43.2053 3C41.5072 3 39.9589 3.84906 39.0599 5.29745Z" fill="black"/>
</svg>
