<svg width="50" height="50" viewBox="0 0 50 50" fill="none" xmlns="http://www.w3.org/2000/svg">
<path d="M7.58866 34.9817C5.08357 34.9817 3.62941 34.6716 3.24206 34.4039C3.00923 34.243 2.90445 34.1054 3.10977 32.7063C3.21455 31.9909 3.62201 31.0415 4.20515 31.2585C4.83275 31.4913 9.96993 32.4608 9.96993 30.4468C9.96993 28.2507 3.3553 29.0169 3.3553 23.3707C3.3553 20.8413 4.45174 18.9034 9.21639 18.9034C12.039 18.9034 12.982 19.3956 13.2391 19.5035C13.526 19.6252 13.6487 20.002 13.4614 21.2275C13.3249 22.1229 12.8391 22.6542 12.4486 22.5325C11.3934 22.2033 7.20554 21.6964 7.20554 23.2913C7.20554 25.4884 13.817 24.7529 13.817 30.505C13.817 33.1318 12.6539 34.9817 7.58866 34.9817M41.7402 32.9476C41.6989 33.8557 41.5042 34.7119 41.2523 34.7119H32.9846C31.6669 34.7119 31.4256 34.4176 31.4256 34.1679V19.5967C31.4256 19.1469 32.4268 18.9892 33.555 18.932C34.7128 18.8727 35.3447 18.9754 35.3447 19.5257V31.0923C35.3447 31.2077 35.4272 31.2289 35.4801 31.2289H41.1613C41.7011 31.2289 41.7942 31.7506 41.7402 32.9476M22.6033 19.149H16.3221C15.7379 19.149 15.7347 19.6739 15.7347 19.6739V34.2113C15.7347 34.6674 16.1337 34.7119 16.6205 34.7119H22.1959C26.7383 34.7119 29.1439 33.1117 29.1439 28.8772V24.8026C29.1439 20.2041 25.9138 19.149 22.6033 19.149ZM25.1137 28.5259C25.1137 30.597 23.9654 31.2035 22.2477 31.2035H19.6802C19.6601 31.2035 19.6559 31.1909 19.6559 31.1664V22.6351C19.6559 22.6204 19.6613 22.6162 19.6793 22.6162H22.2923C23.9254 22.6162 25.1139 23.4005 25.1139 25.043L25.1137 28.5259Z" fill="#798393"/>
<path d="M42.8366 20.6694L43.2081 20.227L43.5795 19.7846C43.6356 19.7169 43.715 19.6788 43.7965 19.6724C43.878 19.6649 43.9616 19.6883 44.0293 19.7455L45.7893 21.2218L47.5483 22.6982C47.616 22.7543 47.6541 22.8337 47.6605 22.9152C47.668 22.9967 47.6446 23.0814 47.5875 23.148L47.217 23.5904L46.8456 24.0328C46.7884 24.1005 46.7101 24.1386 46.6286 24.146C46.546 24.1523 46.4624 24.1292 46.3947 24.073L44.6358 22.5966L42.8757 21.1202C42.8091 21.0631 42.771 20.9848 42.7635 20.9022C42.756 20.8208 42.7803 20.7372 42.8366 20.6694" fill="#57B151"/>
<path d="M40.7119 24.8627L41.2475 25.0786L41.783 25.2956C41.8645 25.3284 41.9523 25.3253 42.0274 25.2923C42.1026 25.2605 42.1661 25.2002 42.1989 25.1187L43.0593 22.9893L43.9198 20.8599C43.9526 20.7785 43.9495 20.6906 43.9176 20.6155C43.8848 20.5393 43.8245 20.4757 43.743 20.443L43.2075 20.2271L42.672 20.0101C42.5905 19.9773 42.5037 19.9816 42.4275 20.0134C42.3523 20.0451 42.2889 20.1055 42.256 20.187L41.3956 22.3174L40.5352 24.4468C40.5024 24.5283 40.5055 24.6161 40.5373 24.6913C40.5701 24.7664 40.6304 24.8299 40.7119 24.8627" fill="#57B151"/>
<path d="M43.768 20.0873L43.2082 20.227L42.6472 20.3667C42.5615 20.388 42.4758 20.3722 42.4059 20.3308C42.335 20.2885 42.2811 20.2197 42.2599 20.1339L41.7043 17.9051L41.1487 15.6772C41.1274 15.5915 41.1424 15.5048 41.1846 15.4349C41.227 15.365 41.2957 15.31 41.3815 15.2888L41.9413 15.1491L42.5023 15.0094C42.5869 14.9881 42.6737 15.004 42.7436 15.0465C42.8145 15.0888 42.8684 15.1576 42.8896 15.2423L43.4452 17.4711L44.0009 19.7C44.0222 19.7846 44.0063 19.8714 43.9649 19.9413C43.9226 20.0122 43.8538 20.0662 43.768 20.0873" fill="#57B151"/>
<path d="M47.9517 17.9436L47.6458 17.4536L47.3336 16.9552C47.2871 16.88 47.2141 16.8313 47.1347 16.8133C47.0553 16.7953 46.9674 16.807 46.8934 16.8536L44.946 18.0707L42.9976 19.2878C42.9236 19.3343 42.8749 19.4073 42.8558 19.4867C42.8378 19.5672 42.8495 19.6539 42.8961 19.728L43.2083 20.2265L43.5141 20.7165C43.5607 20.7917 43.6337 20.8403 43.7131 20.8583C43.7925 20.8775 43.8803 20.8646 43.9544 20.8181L45.9017 19.601L47.8501 18.3839C47.9242 18.3373 47.9729 18.2643 47.9919 18.1849C48.0099 18.1056 47.9982 18.0177 47.9517 17.9437" fill="#57B151"/>
<path d="M43.248 19.651L43.2078 20.2267L43.1676 20.8035C43.1613 20.8914 43.12 20.9686 43.0575 21.0215C42.9961 21.0755 42.9136 21.1062 42.8257 21.0999L40.5344 20.9401L38.2442 20.7792C38.1563 20.7729 38.0791 20.7316 38.0251 20.6702C37.9711 20.6078 37.9404 20.5262 37.9467 20.4384L37.987 19.8616L38.0272 19.2859C38.0335 19.198 38.0748 19.1208 38.1372 19.0668C38.1986 19.0139 38.2812 18.9832 38.369 18.9895L40.6603 19.1493L42.9516 19.3091C43.0395 19.3154 43.1167 19.3568 43.1696 19.4192C43.2236 19.4806 43.2543 19.5632 43.248 19.651" fill="#57B151"/>
</svg>
