<svg width="50" height="50" viewBox="0 0 50 50" fill="none" xmlns="http://www.w3.org/2000/svg">
<path d="M10.3111 33.9158C10.5826 33.6443 10.956 33.4859 11.352 33.4859H47.2623C47.9185 33.4859 48.2466 34.2779 47.7828 34.7417L40.6889 41.8356C40.4174 42.1071 40.044 42.2655 39.6481 42.2655H3.73769C3.08148 42.2655 2.75337 41.4735 3.21725 41.0097L10.3111 33.9158Z" fill="url(#paint0_linear_253_51)"/>
<path d="M10.3111 7.42993C10.5939 7.15839 10.9673 7 11.352 7H47.2623C47.9185 7 48.2466 7.79197 47.7828 8.25584L40.6889 15.3497C40.4174 15.6212 40.044 15.7796 39.6481 15.7796H3.73769C3.08148 15.7796 2.75337 14.9876 3.21725 14.5238L10.3111 7.42993Z" fill="url(#paint1_linear_253_51)"/>
<path d="M40.6889 20.588C40.4174 20.3165 40.044 20.1581 39.6481 20.1581H3.73769C3.08148 20.1581 2.75337 20.9501 3.21725 21.4139L10.3111 28.5078C10.5826 28.7793 10.956 28.9377 11.352 28.9377H47.2623C47.9185 28.9377 48.2466 28.1457 47.7828 27.6818L40.6889 20.588Z" fill="url(#paint2_linear_253_51)"/>
<defs>
<linearGradient id="paint0_linear_253_51" x1="43.8318" y1="2.76236" x2="18.979" y2="50.3655" gradientUnits="userSpaceOnUse">
<stop stop-color="#00FFA3"/>
<stop offset="1" stop-color="#DC1FFF"/>
</linearGradient>
<linearGradient id="paint1_linear_253_51" x1="32.9648" y1="-2.91115" x2="8.11198" y2="44.692" gradientUnits="userSpaceOnUse">
<stop stop-color="#00FFA3"/>
<stop offset="1" stop-color="#DC1FFF"/>
</linearGradient>
<linearGradient id="paint2_linear_253_51" x1="38.3637" y1="-0.092466" x2="13.5109" y2="47.5107" gradientUnits="userSpaceOnUse">
<stop stop-color="#00FFA3"/>
<stop offset="1" stop-color="#DC1FFF"/>
</linearGradient>
</defs>
</svg>
