<svg width="50" height="50" viewBox="0 0 50 50" fill="none" xmlns="http://www.w3.org/2000/svg">
<path d="M30.6471 3C30.6471 3.07941 30.6471 3.15882 30.6471 3.24265C30.6471 6.09265 28.3368 8.40221 25.4875 8.40221C22.6375 8.40221 20.3279 6.09191 20.3279 3.24265C20.3279 3.15882 20.3279 3.07941 20.3279 3H3V48H48V3H30.6471Z" fill="#654FF0"/>
<path d="M13.4529 27.2507H16.4352L18.4713 38.0941H18.508L20.9551 27.2507H23.7448L25.9551 38.2272H25.9985L28.3191 27.2507H31.2441L27.4433 43.1838H24.4838L22.2919 32.3404H22.2345L19.8882 43.1838H16.8735L13.4529 27.2507ZM34.6066 27.2507H39.308L43.9771 43.1838H40.9007L39.8852 39.6382H34.5294L33.7455 43.1838H30.7492L34.6066 27.2507ZM36.3963 31.1779L35.0955 37.0235H39.1441L37.6507 31.1779H36.3963Z" fill="white"/>
</svg>
